<svg xmlns="http://www.w3.org/2000/svg" width="252.916" height="252.916" viewBox="0 0 252.916 252.916">
  <g id="car_0221_shopourfaves_HP_pajamas" transform="translate(-1126 -1615.734)">
    <g id="Group_19415" data-name="Group 19415" transform="translate(0 473.782)">
      <path id="Path_61682" data-name="Path 61682" d="M126.458,0A126.458,126.458,0,1,1,0,126.458,126.458,126.458,0,0,1,126.458,0Z" transform="translate(1126 1141.952)" fill="#00a9e0"/>
      <path id="Subtraction_7" data-name="Subtraction 7" d="M94.723,226.335a127.236,127.236,0,0,1-27.449-2.987,125.889,125.889,0,0,1-48-21.978A127.423,127.423,0,0,1,0,183.66a125.926,125.926,0,0,0,77.572,26.58,127.4,127.4,0,0,0,25.486-2.569,125.765,125.765,0,0,0,45.218-19.028,126.825,126.825,0,0,0,45.816-55.638,125.821,125.821,0,0,0,7.368-23.737,127.394,127.394,0,0,0,2.569-25.486,125.83,125.83,0,0,0-18.445-65.8A127.226,127.226,0,0,0,172.295,0a126.973,126.973,0,0,1,35.6,43.388,125.768,125.768,0,0,1,9.832,27.007,127.6,127.6,0,0,1,.886,54.969,125.764,125.764,0,0,1-19.028,45.218A126.828,126.828,0,0,1,143.945,216.4a125.822,125.822,0,0,1-23.737,7.368A127.39,127.39,0,0,1,94.723,226.335Z" transform="translate(1157.735 1168.532)" fill="#00a9e0" opacity="0.25"/>
    </g>
    <path id="Path_159848" data-name="Path 159848" d="M-88.451,0V-28.05h10.37a12.034,12.034,0,0,1,4.887.952,7.8,7.8,0,0,1,3.442,2.873,8.585,8.585,0,0,1,1.275,4.845,9.021,9.021,0,0,1-1.275,4.921,8.218,8.218,0,0,1-3.442,3.06,11.107,11.107,0,0,1-4.887,1.045h-3.825V0Zm6.545-15.555h1.717a8.2,8.2,0,0,0,2.312-.323,3.769,3.769,0,0,0,1.8-1.1,3.184,3.184,0,0,0,.7-2.193,3.244,3.244,0,0,0-.7-2.218,3.739,3.739,0,0,0-1.8-1.114,8.2,8.2,0,0,0-2.312-.323h-1.717ZM-70.057,0-58.7-28.05h6.086L-41.276,0h-7.055l-2.006-5.474H-60.979L-63,0Zm11.305-11.22h6.171l-3.077-7.939ZM-34.663.544A9.7,9.7,0,0,1-41.5-2.125l2.125-5.423a5.8,5.8,0,0,0,3.6,1.8,2.575,2.575,0,0,0,2.151-1.02,4.443,4.443,0,0,0,.791-2.788v-18.5h6.545V-7.888a8.37,8.37,0,0,1-2.227,6.23A8.372,8.372,0,0,1-34.663.544ZM-23.256,0-11.9-28.05h6.086L5.525,0H-1.53L-3.536-5.474H-14.178L-16.2,0Zm11.305-11.22H-5.78l-3.077-7.939ZM7.667,0l2.482-28.05h6.97L23.256-12.1,29.393-28.05h6.97L38.845,0H32.3L31.042-16.337,25.228-.323H21.284L15.47-16.337,14.229,0Zm33.32,0L52.343-28.05h6.086L69.768,0H62.713L60.707-5.474H50.065L48.042,0ZM52.292-11.22h6.171l-3.077-7.939ZM79.832.544A17,17,0,0,1,76.313.2a16.983,16.983,0,0,1-3-.909,17.232,17.232,0,0,1-2.38-1.19,11.641,11.641,0,0,1-1.658-1.19L72.556-8.6q.663.493,1.5,1.037a15.746,15.746,0,0,0,1.811,1,12.335,12.335,0,0,0,2.023.748,8,8,0,0,0,2.125.289,4.761,4.761,0,0,0,1.751-.289,2.459,2.459,0,0,0,1.139-.867,2.444,2.444,0,0,0,.408-1.445,2.566,2.566,0,0,0-.366-1.385,3.8,3.8,0,0,0-1.113-1.1,14.83,14.83,0,0,0-1.9-1.062q-1.147-.552-2.712-1.266a14.867,14.867,0,0,1-2.159-1.241,9.023,9.023,0,0,1-1.751-1.581,6.7,6.7,0,0,1-1.156-1.955,6.539,6.539,0,0,1-.408-2.346,7.712,7.712,0,0,1,.672-3.162,8.627,8.627,0,0,1,1.921-2.72,9.245,9.245,0,0,1,2.992-1.912,10.217,10.217,0,0,1,3.868-.705,13.767,13.767,0,0,1,3.051.357,18.345,18.345,0,0,1,3,.952,12.27,12.27,0,0,1,2.465,1.343l-2.652,5.219a11.417,11.417,0,0,0-1.776-.995,10.859,10.859,0,0,0-1.964-.672,8.522,8.522,0,0,0-1.972-.238,4.392,4.392,0,0,0-1.709.3,2.481,2.481,0,0,0-1.088.833,2.094,2.094,0,0,0-.382,1.25,1.787,1.787,0,0,0,.221.91,2.07,2.07,0,0,0,.672.68,8.123,8.123,0,0,0,1.13.6q.68.306,1.6.68,2.074.9,3.706,1.76A13.007,13.007,0,0,1,88.255-13.7a6.818,6.818,0,0,1,1.683,2.337,7.775,7.775,0,0,1,.569,3.1A8.34,8.34,0,0,1,89.19-3.519,8.35,8.35,0,0,1,85.476-.5,14.032,14.032,0,0,1,79.832.544Z" transform="translate(1252.939 1751.782)" fill="#fff"/>
  </g>
</svg>
