<svg xmlns="http://www.w3.org/2000/svg" width="252.916" height="252.916" viewBox="0 0 252.916 252.916">
  <g id="car_0221_shopourfaves_HP_M2M" transform="translate(-302 -1141.952)">
    <path id="Path_61682" data-name="Path 61682" d="M126.458,0A126.458,126.458,0,1,1,0,126.458,126.458,126.458,0,0,1,126.458,0Z" transform="translate(302 1141.952)" fill="#00a9e0"/>
    <path id="Path_159845" data-name="Path 159845" d="M-103.462,0l2.482-28.05h6.97L-87.873-12.1l6.137-15.946h6.97L-72.284,0h-6.545l-1.258-16.337L-85.9-.323h-3.944l-5.814-16.014L-96.9,0Zm33.32,0,11.356-28.05H-52.7L-41.361,0h-7.055l-2.006-5.474H-61.064L-63.087,0Zm11.305-11.22h6.171l-3.077-7.939ZM-36.431,0V-22.287H-43.01V-28.05h19.72v5.763h-6.579V0ZM-6.766.544a15.986,15.986,0,0,1-6-1.131,16.05,16.05,0,0,1-4.981-3.128,14.687,14.687,0,0,1-3.383-4.633,13.233,13.233,0,0,1-1.224-5.644,13.251,13.251,0,0,1,1.233-5.669A14.834,14.834,0,0,1-17.739-24.3a15.97,15.97,0,0,1,4.964-3.128A15.876,15.876,0,0,1-6.8-28.56a16.781,16.781,0,0,1,4.913.714,14.068,14.068,0,0,1,3.978,1.853L-.7-20.417a8.105,8.105,0,0,0-2.55-1.241,10.715,10.715,0,0,0-3.128-.459A9.754,9.754,0,0,0-9.86-21.5a8.793,8.793,0,0,0-2.83,1.717,7.865,7.865,0,0,0-1.887,2.575,7.622,7.622,0,0,0-.672,3.2,7.622,7.622,0,0,0,.672,3.2A7.865,7.865,0,0,0-12.69-8.228,8.793,8.793,0,0,0-9.86-6.511,9.754,9.754,0,0,0-6.375-5.9a10.715,10.715,0,0,0,3.128-.459A8.105,8.105,0,0,0-.7-7.6L2.091-2.023A14.46,14.46,0,0,1-1.8-.2,16.31,16.31,0,0,1-6.766.544ZM6,0V-28.05h6.545v11.118h8.738V-28.05h6.562V0H21.284V-11.186H12.546V0ZM34.986,0V-28.05h6.545V0ZM48.671,0V-28.05h6.545L66.232-10.9V-28.05h6.545V0H66.232L55.216-17.153V0ZM91.477.544a13.161,13.161,0,0,1-5.363-1.1,13.321,13.321,0,0,1-4.361-3.077,14.323,14.323,0,0,1-2.915-4.633,15.622,15.622,0,0,1-1.046-5.78,15.683,15.683,0,0,1,1-5.627A13.982,13.982,0,0,1,81.668-24.3a13.278,13.278,0,0,1,4.488-3.128,14.561,14.561,0,0,1,5.831-1.13,18.605,18.605,0,0,1,3.553.357,18.781,18.781,0,0,1,3.587,1.08,14.446,14.446,0,0,1,3.2,1.811L99.28-20.23a10.186,10.186,0,0,0-3.417-1.836,12.226,12.226,0,0,0-3.774-.646A7.39,7.39,0,0,0,89-22.1a6.243,6.243,0,0,0-2.261,1.725,7.578,7.578,0,0,0-1.385,2.652,11.629,11.629,0,0,0-.468,3.391,11.92,11.92,0,0,0,.527,3.672,8.476,8.476,0,0,0,1.471,2.788A6.444,6.444,0,0,0,89.1-6.1a6.243,6.243,0,0,0,2.737.612,6.6,6.6,0,0,0,2.253-.382,6.183,6.183,0,0,0,1.887-1.071,5.12,5.12,0,0,0,1.292-1.6,4.2,4.2,0,0,0,.467-1.946v-.2H91.46v-5.066h12.954v4.9a9.845,9.845,0,0,1-1.046,4.479,11.652,11.652,0,0,1-2.856,3.638A13.541,13.541,0,0,1,96.373-.323,13.919,13.919,0,0,1,91.477.544ZM-62.033,34V11.713h-6.579V5.95h19.72v5.763h-6.579V34Zm27.795.544a13.6,13.6,0,0,1-5.508-1.122,14.063,14.063,0,0,1-4.5-3.12,14.664,14.664,0,0,1-3.035-4.641,14.649,14.649,0,0,1-1.1-5.669,14.649,14.649,0,0,1,1.1-5.67,14.664,14.664,0,0,1,3.035-4.641,14.063,14.063,0,0,1,4.5-3.119A13.6,13.6,0,0,1-34.238,5.44,13.6,13.6,0,0,1-28.73,6.562a14.063,14.063,0,0,1,4.5,3.119,14.665,14.665,0,0,1,3.034,4.641,14.649,14.649,0,0,1,1.1,5.67,14.649,14.649,0,0,1-1.1,5.669A14.664,14.664,0,0,1-24.225,30.3a14.063,14.063,0,0,1-4.5,3.12A13.6,13.6,0,0,1-34.238,34.544Zm0-6.324a6.8,6.8,0,0,0,2.865-.595,6.493,6.493,0,0,0,2.244-1.691,7.87,7.87,0,0,0,1.462-2.6,10.2,10.2,0,0,0,.518-3.34,10.2,10.2,0,0,0-.518-3.34,7.87,7.87,0,0,0-1.462-2.6,6.493,6.493,0,0,0-2.244-1.692,6.8,6.8,0,0,0-2.865-.595,6.8,6.8,0,0,0-2.864.595,6.493,6.493,0,0,0-2.244,1.692,7.87,7.87,0,0,0-1.462,2.6,10.2,10.2,0,0,0-.518,3.34,10.2,10.2,0,0,0,.518,3.34,7.87,7.87,0,0,0,1.462,2.6A6.493,6.493,0,0,0-37.1,27.625,6.8,6.8,0,0,0-34.238,28.22ZM-15.13,34V5.95H-4.76A12.034,12.034,0,0,1,.127,6.9,7.8,7.8,0,0,1,3.57,9.775,8.585,8.585,0,0,1,4.845,14.62,9.021,9.021,0,0,1,3.57,19.542,8.218,8.218,0,0,1,.127,22.6,11.107,11.107,0,0,1-4.76,23.647H-8.585V34Zm6.545-15.555h1.717a8.2,8.2,0,0,0,2.312-.323,3.769,3.769,0,0,0,1.8-1.1,3.184,3.184,0,0,0,.7-2.193,3.244,3.244,0,0,0-.7-2.218,3.739,3.739,0,0,0-1.8-1.114,8.2,8.2,0,0,0-2.312-.323H-8.585Zm24.531,16.1a17.081,17.081,0,0,1-6.52-1.258,17.232,17.232,0,0,1-2.38-1.19,11.641,11.641,0,0,1-1.658-1.19L8.67,25.4q.663.493,1.5,1.037a15.746,15.746,0,0,0,1.81,1,12.335,12.335,0,0,0,2.023.748,8,8,0,0,0,2.125.289,4.761,4.761,0,0,0,1.751-.289,2.314,2.314,0,0,0,1.547-2.312,2.566,2.566,0,0,0-.366-1.385,3.8,3.8,0,0,0-1.113-1.1,14.83,14.83,0,0,0-1.9-1.062q-1.148-.553-2.712-1.267a14.867,14.867,0,0,1-2.159-1.241,9.023,9.023,0,0,1-1.751-1.581,6.7,6.7,0,0,1-1.156-1.955,6.539,6.539,0,0,1-.408-2.346,7.712,7.712,0,0,1,.672-3.162,8.627,8.627,0,0,1,1.921-2.72,9.245,9.245,0,0,1,2.992-1.912,10.217,10.217,0,0,1,3.867-.705,13.767,13.767,0,0,1,3.052.357,18.345,18.345,0,0,1,3,.952A12.27,12.27,0,0,1,25.84,8.092l-2.652,5.219a11.417,11.417,0,0,0-1.776-.995,10.859,10.859,0,0,0-1.964-.672,8.522,8.522,0,0,0-1.972-.238,4.392,4.392,0,0,0-1.708.3,2.481,2.481,0,0,0-1.088.833,2.094,2.094,0,0,0-.383,1.25,1.787,1.787,0,0,0,.221.91,2.07,2.07,0,0,0,.672.68,8.123,8.123,0,0,0,1.131.6q.68.306,1.6.68,2.074.9,3.706,1.76A13.007,13.007,0,0,1,24.369,20.3a6.817,6.817,0,0,1,1.683,2.337,7.775,7.775,0,0,1,.569,3.1A7.986,7.986,0,0,1,21.59,33.5,14.032,14.032,0,0,1,15.946,34.544Zm32.266,0a12.012,12.012,0,0,1-5.007-.969,7.706,7.706,0,0,1-3.3-2.694,6.986,6.986,0,0,1-1.165-4,6.727,6.727,0,0,1,1.683-4.556,13.107,13.107,0,0,1,5.151-3.315,21.007,21.007,0,0,1-1.632-2.372,9.012,9.012,0,0,1-.884-2.023,7.111,7.111,0,0,1-.272-1.947A6.517,6.517,0,0,1,43.97,8.7a7.434,7.434,0,0,1,3.17-2.448,11.19,11.19,0,0,1,4.4-.841,10.515,10.515,0,0,1,3.876.646,7.913,7.913,0,0,1,2.7,1.709,7.051,7.051,0,0,1,1.59,2.32,6.479,6.479,0,0,1,.519,2.482,6.18,6.18,0,0,1-1.419,3.885A12.857,12.857,0,0,1,54.706,19.7l3.672,3.791q.459-.34,1.012-.791t1.1-.944q.553-.493,1.071-.986t.893-.9l4.029,3.961q-1.071,1.1-2.142,2.142t-1.87,1.683L68.561,34H60.3l-2.737-2.839a15.706,15.706,0,0,1-4.31,2.491A14.012,14.012,0,0,1,48.212,34.544Zm.918-6.239a5.764,5.764,0,0,0,2.117-.417,7.667,7.667,0,0,0,2-1.165l-4.335-4.216a3.95,3.95,0,0,0-1.98,1.318,3.187,3.187,0,0,0-.757,2.031,2.247,2.247,0,0,0,.382,1.326,2.425,2.425,0,0,0,1.054.833A3.814,3.814,0,0,0,49.13,28.305ZM51.442,16.15a12.87,12.87,0,0,0,1.691-1.182A4.408,4.408,0,0,0,54.145,13.8a2.575,2.575,0,0,0,.34-1.284,2.471,2.471,0,0,0-.332-1.267,2.356,2.356,0,0,0-.918-.892,2.756,2.756,0,0,0-1.352-.323,2.558,2.558,0,0,0-1.275.306,2.116,2.116,0,0,0-.842.858,2.666,2.666,0,0,0-.3,1.283,3.4,3.4,0,0,0,.229,1.216,5.319,5.319,0,0,0,.663,1.207A10.238,10.238,0,0,0,51.442,16.15ZM-88.885,68V39.95h8.823A10.247,10.247,0,0,1-73.738,41.7a6.21,6.21,0,0,1,2.312,5.287,6.381,6.381,0,0,1-3.468,6.12,7.145,7.145,0,0,1,4.42,2.244,6.841,6.841,0,0,1,1.53,4.641,7.884,7.884,0,0,1-1.131,4.292,7.321,7.321,0,0,1-3.2,2.754,11.455,11.455,0,0,1-4.87.961Zm6.562-17.153h.68a4.656,4.656,0,0,0,2.882-.765,2.62,2.62,0,0,0,.994-2.21,2.516,2.516,0,0,0-.961-2.159A4.879,4.879,0,0,0-81.643,45h-.68Zm0,12.087h1.87a6.181,6.181,0,0,0,3.468-.782,2.674,2.674,0,0,0,1.139-2.363,2.833,2.833,0,0,0-1.173-2.457,5.861,5.861,0,0,0-3.434-.841h-1.87Zm29.648,5.61a13.6,13.6,0,0,1-5.508-1.122,14.063,14.063,0,0,1-4.5-3.119,14.664,14.664,0,0,1-3.035-4.641,14.649,14.649,0,0,1-1.1-5.669,14.649,14.649,0,0,1,1.1-5.669,14.664,14.664,0,0,1,3.035-4.641,14.063,14.063,0,0,1,4.5-3.119,13.6,13.6,0,0,1,5.508-1.122,13.6,13.6,0,0,1,5.508,1.122,14.063,14.063,0,0,1,4.505,3.119,14.665,14.665,0,0,1,3.034,4.641,14.649,14.649,0,0,1,1.1,5.669,14.649,14.649,0,0,1-1.1,5.669A14.665,14.665,0,0,1-42.662,64.3a14.063,14.063,0,0,1-4.505,3.119A13.6,13.6,0,0,1-52.675,68.544Zm0-6.324a6.8,6.8,0,0,0,2.865-.6,6.493,6.493,0,0,0,2.244-1.691,7.87,7.87,0,0,0,1.462-2.6,10.2,10.2,0,0,0,.518-3.34,10.2,10.2,0,0,0-.518-3.34,7.871,7.871,0,0,0-1.462-2.6,6.493,6.493,0,0,0-2.244-1.691,6.8,6.8,0,0,0-2.865-.6,6.8,6.8,0,0,0-2.864.6,6.493,6.493,0,0,0-2.244,1.691,7.871,7.871,0,0,0-1.462,2.6,10.2,10.2,0,0,0-.518,3.34,10.2,10.2,0,0,0,.518,3.34,7.87,7.87,0,0,0,1.462,2.6,6.493,6.493,0,0,0,2.244,1.691A6.8,6.8,0,0,0-52.675,62.22ZM-31.442,68V45.713h-6.579V39.95H-18.3v5.763H-24.88V68Zm20.6,0V45.713h-6.579V39.95H2.3v5.763H-4.276V68Zm27.795.544a13.6,13.6,0,0,1-5.508-1.122A14.063,14.063,0,0,1,6.944,64.3a14.861,14.861,0,0,1,0-20.621,14.063,14.063,0,0,1,4.505-3.119,13.6,13.6,0,0,1,5.508-1.122,13.6,13.6,0,0,1,5.508,1.122,14.063,14.063,0,0,1,4.5,3.119,14.861,14.861,0,0,1,0,20.621,14.063,14.063,0,0,1-4.5,3.119A13.6,13.6,0,0,1,16.957,68.544Zm0-6.324a6.8,6.8,0,0,0,2.865-.6,6.493,6.493,0,0,0,2.244-1.691,7.87,7.87,0,0,0,1.462-2.6,11.02,11.02,0,0,0,0-6.681,7.871,7.871,0,0,0-1.462-2.6,6.493,6.493,0,0,0-2.244-1.691,7.193,7.193,0,0,0-5.729,0,6.493,6.493,0,0,0-2.244,1.691,7.871,7.871,0,0,0-1.462,2.6,11.02,11.02,0,0,0,0,6.681,7.87,7.87,0,0,0,1.462,2.6,6.493,6.493,0,0,0,2.244,1.691A6.8,6.8,0,0,0,16.957,62.22ZM34.858,68,37.34,39.95h6.97L50.447,55.9,56.584,39.95h6.97L66.036,68H59.492L58.233,51.663,52.42,67.677H48.475L42.661,51.663,41.42,68Zm43.826.544a17.081,17.081,0,0,1-6.519-1.258,17.232,17.232,0,0,1-2.38-1.19,11.641,11.641,0,0,1-1.658-1.19L71.409,59.4q.663.493,1.5,1.037a15.747,15.747,0,0,0,1.811,1,12.335,12.335,0,0,0,2.023.748,8,8,0,0,0,2.125.289,4.761,4.761,0,0,0,1.751-.289,2.314,2.314,0,0,0,1.547-2.312,2.566,2.566,0,0,0-.365-1.385,3.8,3.8,0,0,0-1.114-1.1,14.83,14.83,0,0,0-1.9-1.062q-1.147-.552-2.712-1.266a14.867,14.867,0,0,1-2.159-1.241,9.023,9.023,0,0,1-1.751-1.581,6.7,6.7,0,0,1-1.156-1.955,6.539,6.539,0,0,1-.408-2.346,7.712,7.712,0,0,1,.672-3.162,8.627,8.627,0,0,1,1.921-2.72,9.245,9.245,0,0,1,2.992-1.912,10.217,10.217,0,0,1,3.868-.705,13.768,13.768,0,0,1,3.051.357,18.345,18.345,0,0,1,3,.952,12.27,12.27,0,0,1,2.465,1.343l-2.652,5.219a11.417,11.417,0,0,0-1.777-.995,10.859,10.859,0,0,0-1.963-.672,8.522,8.522,0,0,0-1.972-.238,4.392,4.392,0,0,0-1.709.3,2.481,2.481,0,0,0-1.088.833,2.094,2.094,0,0,0-.382,1.25,1.787,1.787,0,0,0,.221.91,2.07,2.07,0,0,0,.671.68,8.123,8.123,0,0,0,1.131.6q.68.306,1.6.68,2.074.9,3.706,1.76A13.007,13.007,0,0,1,87.108,54.3a6.818,6.818,0,0,1,1.683,2.337,7.775,7.775,0,0,1,.569,3.1,7.986,7.986,0,0,1-5.032,7.76A14.032,14.032,0,0,1,78.684,68.544Z" transform="translate(428.939 1254)" fill="#fff"/>
  </g>
</svg>
