<svg xmlns="http://www.w3.org/2000/svg" width="252.916" height="252.916" viewBox="0 0 252.916 252.916">
  <g id="car_0221_shopourfaves_HP_basics" transform="translate(-577 -1615.734)">
    <path id="Path_61682" data-name="Path 61682" d="M126.458,0A126.458,126.458,0,1,1,0,126.458,126.458,126.458,0,0,1,126.458,0Z" transform="translate(577 1615.734)" fill="#00a9e0"/>
    <path id="Path_159846" data-name="Path 159846" d="M-65.926,0V-28.05H-57.1A10.247,10.247,0,0,1-50.779-26.3a6.21,6.21,0,0,1,2.312,5.287,6.381,6.381,0,0,1-3.468,6.12,7.145,7.145,0,0,1,4.42,2.244,6.841,6.841,0,0,1,1.53,4.641,7.884,7.884,0,0,1-1.131,4.293,7.322,7.322,0,0,1-3.2,2.754A11.455,11.455,0,0,1-55.182,0Zm6.562-17.153h.68a4.656,4.656,0,0,0,2.882-.765,2.62,2.62,0,0,0,.995-2.21,2.516,2.516,0,0,0-.961-2.159A4.879,4.879,0,0,0-58.684-23h-.68Zm0,12.087h1.87a6.181,6.181,0,0,0,3.468-.782,2.674,2.674,0,0,0,1.139-2.363,2.833,2.833,0,0,0-1.173-2.456,5.861,5.861,0,0,0-3.434-.842h-1.87ZM-45.475,0l11.356-28.05h6.086L-16.694,0h-7.055l-2.006-5.474H-36.4L-38.42,0ZM-34.17-11.22H-28l-3.077-7.939ZM-6.63.544A17,17,0,0,1-10.149.2a16.983,16.983,0,0,1-3-.909A17.232,17.232,0,0,1-15.53-1.9a11.64,11.64,0,0,1-1.657-1.19L-13.906-8.6q.663.493,1.5,1.037a15.746,15.746,0,0,0,1.81,1,12.335,12.335,0,0,0,2.023.748,8,8,0,0,0,2.125.289,4.761,4.761,0,0,0,1.751-.289,2.459,2.459,0,0,0,1.139-.867,2.444,2.444,0,0,0,.408-1.445,2.566,2.566,0,0,0-.366-1.385,3.8,3.8,0,0,0-1.113-1.1,14.83,14.83,0,0,0-1.9-1.062q-1.147-.552-2.711-1.266a14.868,14.868,0,0,1-2.159-1.241,9.023,9.023,0,0,1-1.751-1.581A6.7,6.7,0,0,1-14.3-17.714a6.539,6.539,0,0,1-.408-2.346,7.712,7.712,0,0,1,.672-3.162,8.627,8.627,0,0,1,1.921-2.72,9.245,9.245,0,0,1,2.992-1.912,10.217,10.217,0,0,1,3.868-.705A13.767,13.767,0,0,1-2.2-28.2a18.345,18.345,0,0,1,3,.952,12.27,12.27,0,0,1,2.465,1.343L.612-20.689a11.417,11.417,0,0,0-1.776-.995,10.859,10.859,0,0,0-1.964-.672A8.522,8.522,0,0,0-5.1-22.593a4.392,4.392,0,0,0-1.708.3,2.481,2.481,0,0,0-1.088.833,2.094,2.094,0,0,0-.383,1.25,1.787,1.787,0,0,0,.221.91,2.07,2.07,0,0,0,.672.68,8.123,8.123,0,0,0,1.13.6q.68.306,1.6.68,2.074.9,3.706,1.76A13.007,13.007,0,0,1,1.793-13.7a6.817,6.817,0,0,1,1.683,2.337,7.775,7.775,0,0,1,.569,3.1A8.34,8.34,0,0,1,2.728-3.519,8.35,8.35,0,0,1-.986-.5,14.032,14.032,0,0,1-6.63.544ZM9.129,0V-28.05h6.545V0ZM35.564.544a15.985,15.985,0,0,1-6-1.131,16.05,16.05,0,0,1-4.981-3.128A14.687,14.687,0,0,1,21.2-8.347a13.233,13.233,0,0,1-1.224-5.644,13.251,13.251,0,0,1,1.233-5.669A14.834,14.834,0,0,1,24.59-24.3a15.97,15.97,0,0,1,4.964-3.128,15.876,15.876,0,0,1,5.975-1.13,16.781,16.781,0,0,1,4.913.714,14.068,14.068,0,0,1,3.978,1.853l-2.788,5.576a8.105,8.105,0,0,0-2.55-1.241,10.715,10.715,0,0,0-3.128-.459,9.754,9.754,0,0,0-3.485.612,8.793,8.793,0,0,0-2.83,1.717,7.865,7.865,0,0,0-1.887,2.575,7.622,7.622,0,0,0-.671,3.2,7.622,7.622,0,0,0,.671,3.2,7.865,7.865,0,0,0,1.887,2.576,8.793,8.793,0,0,0,2.83,1.717,9.754,9.754,0,0,0,3.485.612,10.715,10.715,0,0,0,3.128-.459A8.105,8.105,0,0,0,41.633-7.6l2.788,5.576A14.46,14.46,0,0,1,40.528-.2,16.31,16.31,0,0,1,35.564.544Zm20.162,0A17,17,0,0,1,52.207.2a16.983,16.983,0,0,1-3-.909,17.232,17.232,0,0,1-2.38-1.19,11.64,11.64,0,0,1-1.657-1.19L48.45-8.6q.663.493,1.5,1.037a15.746,15.746,0,0,0,1.811,1,12.335,12.335,0,0,0,2.023.748,8,8,0,0,0,2.125.289,4.761,4.761,0,0,0,1.751-.289A2.459,2.459,0,0,0,58.8-6.681a2.444,2.444,0,0,0,.408-1.445,2.566,2.566,0,0,0-.366-1.385,3.8,3.8,0,0,0-1.113-1.1,14.83,14.83,0,0,0-1.9-1.062q-1.147-.552-2.712-1.266a14.868,14.868,0,0,1-2.159-1.241,9.023,9.023,0,0,1-1.751-1.581,6.7,6.7,0,0,1-1.156-1.955,6.539,6.539,0,0,1-.408-2.346,7.712,7.712,0,0,1,.672-3.162,8.627,8.627,0,0,1,1.921-2.72,9.245,9.245,0,0,1,2.992-1.912A10.217,10.217,0,0,1,57.1-28.56a13.767,13.767,0,0,1,3.052.357,18.345,18.345,0,0,1,3,.952,12.27,12.27,0,0,1,2.465,1.343l-2.652,5.219a11.418,11.418,0,0,0-1.777-.995,10.859,10.859,0,0,0-1.964-.672,8.522,8.522,0,0,0-1.972-.238,4.392,4.392,0,0,0-1.708.3,2.481,2.481,0,0,0-1.088.833,2.094,2.094,0,0,0-.382,1.25,1.787,1.787,0,0,0,.221.91,2.07,2.07,0,0,0,.672.68,8.123,8.123,0,0,0,1.131.6q.68.306,1.6.68,2.074.9,3.706,1.76A13.007,13.007,0,0,1,64.149-13.7a6.818,6.818,0,0,1,1.683,2.337,7.775,7.775,0,0,1,.569,3.1,8.34,8.34,0,0,1-1.317,4.743A8.35,8.35,0,0,1,61.37-.5,14.032,14.032,0,0,1,55.726.544Z" transform="translate(703.939 1751.782)" fill="#fff"/>
  </g>
</svg>
