<svg id="desktop_skiphop_logo" xmlns="http://www.w3.org/2000/svg" width="280.791" height="62.397" viewBox="0 0 280.791 62.397">
  <path id="Path_38" data-name="Path 38" d="M265.564,20.137c0-.628-.526-.776-1.072-.776h-1.014v1.564h.735c.682,0,1.351-.025,1.351-.788" transform="translate(4.754 22.344)" fill="#fff"/>
  <path id="Path_39" data-name="Path 39" d="M259.946,14.983h-1.1V20.5h1.137c2.024,0,4.216-.324,4.216-2.9,0-2.48-2.357-2.611-4.257-2.611" transform="translate(-9.618 8.747)" fill="#fff"/>
  <path id="Path_40" data-name="Path 40" d="M254.044,15.291a5.874,5.874,0,0,0-5.949,6.2,5.954,5.954,0,1,0,11.9,0,5.875,5.875,0,0,0-5.953-6.2" transform="translate(-43.019 9.704)" fill="#fff"/>
  <path id="Path_41" data-name="Path 41" d="M223.864,13.736h-1.051V25.1h1.269c4.032,0,8.408-.772,8.408-5.809,0-4.964-4.722-5.551-8.626-5.551" transform="translate(-121.536 4.875)" fill="#fff"/>
  <path id="Path_42" data-name="Path 42" d="M266.175,18.981a3.342,3.342,0,1,0,3.293,3.342,3.262,3.262,0,0,0-3.293-3.342m1.342,5.6-1.265-2h-.936v2h-.554V20.069h1.729c1.018,0,1.47.439,1.47,1.248a1.212,1.212,0,0,1-1.133,1.256l1.343,2Z" transform="translate(2.916 21.164)" fill="#fff"/>
  <path id="Path_43" data-name="Path 43" d="M198.145,9.2V71.6H478.936V9.2Zm25.607,47.469a9.881,9.881,0,0,1-9.8-8.876l3.995-.842a6,6,0,1,0,12-.177c0-3.4-2.738-4.873-5.473-6l-2.184-.932c-3.617-1.548-6.906-3.625-6.906-8.031,0-5.14,4.549-8.215,9.336-8.215a9.077,9.077,0,0,1,8.166,4.8l-3.149,1.893a5.44,5.44,0,0,0-5.095-2.985c-2.521,0-5.3,1.72-5.3,4.5,0,2.476,2.439,3.781,4.413,4.537l2.275.883c4.5,1.778,7.866,4.249,7.866,9.546a9.782,9.782,0,0,1-10.141,9.895M262.48,56l-11.955-14.76-1.593,1.507V56H244.97V24.271h3.962V38.037L262.39,24.271h5.177L253.3,38.538,267.822,56Zm18.032,0h-3.958V24.271h3.958ZM301.693,42.7h-2.27V56h-3.958V24.271h4.541c9.763,0,12.789,3.375,12.789,9.176,0,6.692-5.083,9.258-11.1,9.258m39.463,3.317-2.427,4.015-5.608-3.469v6.651h-4.746V46.511L322.344,49.9l-2.357-3.95,5.892-3.391L320.066,39.1l2.147-3.941,6.163,3.383V31.767h4.746v6.569l5.608-3.321,2.427,4.089-5.883,3.457ZM382.089,56H370.983V44.971H363.9V56H352.8V24.271H363.9V34.953h7.082V24.271h11.106Zm27.081.591c-9.714,0-17.6-6.126-17.6-16.344,0-10.014,7.932-16.521,17.6-16.521s17.621,6.507,17.621,16.521c0,10.219-7.911,16.344-17.621,16.344m44.1-10.149h-5.892V56H436.271V24.271h14.6c7.411,0,12.883,3.781,12.883,11.656,0,6.483-4.04,10.515-10.486,10.515M467.236,56.59a3.9,3.9,0,1,1,3.9-3.9,3.85,3.85,0,0,1-3.9,3.9" transform="translate(-198.145 -9.203)" fill="#fff"/>
</svg>
