<svg id="desktop_okb_logo" xmlns="http://www.w3.org/2000/svg" width="280.791" height="47.014" viewBox="0 0 280.791 47.014">
  <path id="Path_44" data-name="Path 44" d="M172.116,28.041a7.22,7.22,0,0,0-.8.31,5.731,5.731,0,0,1-1.354.445c-.141.024-.266.057-.391.088a2.113,2.113,0,0,1-.812.1c-.168-.02-.367-.054-.411-.118s-.007-.229.037-.387c.067-.276.132-.553.2-.832a15.868,15.868,0,0,1,.6-2.139c.253-.657.512-1.311.771-1.964.179-.458.36-.916.539-1.375.121-.31.229-.647.344-1,.381-1.209.778-2.459,1.876-2.914a6.574,6.574,0,0,1,1.823-.438,4.323,4.323,0,0,1,.462-.024,2.622,2.622,0,0,1,2.372,1.29,3.828,3.828,0,0,1,.512,2.294,4.294,4.294,0,0,1-.253,1.058c-.044.138-.091.273-.125.4a7.6,7.6,0,0,1-.741,1.556,5.243,5.243,0,0,1-1.209,1.486,18.079,18.079,0,0,1-2.419,1.742,6.729,6.729,0,0,1-1.014.421m-2.021,6.613c1.664,0,3.039,1.435,3.339,3.49a6.868,6.868,0,0,1-3.1,6.489,7.249,7.249,0,0,1-3.012,1.048,8.414,8.414,0,0,1-.866.051,2.872,2.872,0,0,1-2.517-1.078c-.323-.441-.084-1.105.148-1.745l.057-.165c.27-.748.522-1.56.8-2.564l.077-.293c.347-1.321,1-3.783,2.129-4.353a8.983,8.983,0,0,1,2.261-.805,3.49,3.49,0,0,1,.691-.074m8.426.819a6.422,6.422,0,0,0-1.637-2.345c-.175-.165-.35-.344-.525-.512l-.131-.135c-.064-.064-.131-.135-.206-.205-.111-.118-.222-.236-.323-.33a1.031,1.031,0,0,0-.2-.115,2.3,2.3,0,0,1-.259-.145.054.054,0,0,1,.013-.04.715.715,0,0,0,.057-.084,1.983,1.983,0,0,1,.633-.458,3.783,3.783,0,0,0,.374-.232c.253-.185.488-.394.714-.6.125-.111.249-.222.381-.33.344-.29.721-.559,1.085-.819.344-.246.7-.5,1.034-.771l.259-.216a9.727,9.727,0,0,0,1.833-1.775,10.98,10.98,0,0,0,1.728-9.133,4.782,4.782,0,0,0-.923-1.691A10.783,10.783,0,0,0,180,13.069a5.582,5.582,0,0,0-1.459-.7c-.4-.135-.822-.239-1.247-.344a7,7,0,0,0-1.694-.155h-.579c-.239,0-.526,0-.812-.024a6.027,6.027,0,0,0-1.684.219l-.165.037a15.138,15.138,0,0,0-4.026,1.277c-.556.3-1.095.647-1.614.98-.276.179-.549.354-.825.522-.542.334-1.068.711-1.577,1.075l-.29.206c-.347.243-2.419,1.937-2.705,2.193-.536.482-.175,1.55.064,2.257.034.094.064.179.084.253.135.4.822,1.7,1.354,1.866a.548.548,0,0,0,.152.024,1.283,1.283,0,0,0,.728-.364c.078-.057.148-.118.212-.155a4.771,4.771,0,0,1,.62-.3c.162-.071.33-.145.488-.229a1.721,1.721,0,0,0,.239-.158c.165-.125.34-.27.488-.179.125.077.209.317-.074,1.034-.141.36-.243.7-.357,1.058-.047.152-.094.307-.145.462q-.44,1.319-.876,2.641l-.414,1.247c-.175.526-.33,1.071-.492,1.654a17.027,17.027,0,0,1-1.135,3.227,2.473,2.473,0,0,0-.226.674L159.5,40.95a2.815,2.815,0,0,0-1.27,2.378,2.674,2.674,0,0,0,.152.893l.017.051c-.222.654-.435,1.307-.654,1.957l-.505,1.526c-.169.5-.337,1.007-.488,1.516-.027.091-.061.192-.1.3-.2.579-.472,1.378.216,1.745a3.623,3.623,0,0,0,1.691.307c.121,0,.243,0,.36,0s.229-.007.34-.007a9.5,9.5,0,0,0,1.132-.051c.448-.064.617-.088.825-.566a15.829,15.829,0,0,0,.7-1.978,2.6,2.6,0,0,1,.566.431,3.292,3.292,0,0,0,.364.3,8.208,8.208,0,0,0,1.856.8,9.336,9.336,0,0,0,2.921.526,7.15,7.15,0,0,0,1.674-.2,11.781,11.781,0,0,0,6.61-3.9c2.382-3.012,4.11-7.735,2.611-11.5" transform="translate(33.393 -6.419)" fill="#fff"/>
  <path id="Path_45" data-name="Path 45" d="M176.219,22.58a6.03,6.03,0,0,0-.229.617,41.952,41.952,0,0,1-2.426,6.627,1.893,1.893,0,0,1-1.24,1.216,2.661,2.661,0,0,1-2.766-1.492,8.13,8.13,0,0,1,.63-5.741c1.095-2.247,2.422-3.4,4.06-3.531l.138-.01c.2-.017.455-.037.714-.037.782,0,1.25.189,1.435.573.212.462-.084,1.189-.317,1.779m7.105-5.276c.118-.451.2-.778-.236-1.095a4.7,4.7,0,0,0-2.321-.549,2.7,2.7,0,0,0-.35.02,1.586,1.586,0,0,0-1.065.468,2.822,2.822,0,0,0-.462.788,3.562,3.562,0,0,1-.485.849,7.992,7.992,0,0,0-4.289-1.449,7.812,7.812,0,0,0-1.105.084,8.351,8.351,0,0,0-4.851,2.921,12.864,12.864,0,0,0-2.826,5.4,11.155,11.155,0,0,0-.6,3.665c0,3.574.933,5.916,2.779,6.95a6.305,6.305,0,0,0,2.766.633,3.661,3.661,0,0,0,1.075-.142c-.057.428-.3,1.6-.354,1.745a5.859,5.859,0,0,1-.832,1.509,2.279,2.279,0,0,1-2.365.94,2.816,2.816,0,0,1-.745-.438,2.243,2.243,0,0,0-1.216-.559.908.908,0,0,0-.374.077c-.67.273-2.523,2.661-2.436,3.315.067.445.67.846,1.31,1.209a5.379,5.379,0,0,0,2.958.745,7.452,7.452,0,0,0,5.468-1.779,13.543,13.543,0,0,0,3.15-5.744c.347-1.088.772-2.183,1.182-3.238.36-.933.734-1.9,1.058-2.854.738-2.207,1.577-4.706,2.506-7.129.28-.711.6-1.391.91-2.052.209-.445.424-.906.627-1.371.084-.2.169-.4.253-.593a15,15,0,0,0,.849-2.244Z" transform="translate(49.025 2.623)" fill="#fff"/>
  <path id="Path_46" data-name="Path 46" d="M177.971,18.775l.074,0a1.512,1.512,0,0,1,.172-.01,1.111,1.111,0,0,1,.5.115c.357.158.987.684,1.159,2.446a9.881,9.881,0,0,1-.519,3.854l0,.024c-.741,2.348-2.752,3.911-3.824,3.955a1.112,1.112,0,0,1-.654-.084c-.313-.111-.866-.862-1-2.392a9.527,9.527,0,0,1,.62-4.093c.913-2.442,2.614-3.716,3.48-3.81m6.371,2.773a8.448,8.448,0,0,0-.091-1.412,8.085,8.085,0,0,0-1.54-4.019,5.159,5.159,0,0,0-3.918-1.509h-.081a7.676,7.676,0,0,0-4.322,1.371,12.2,12.2,0,0,0-5.508,10.275c0,1.765.414,4.969,3.2,6.59a5.693,5.693,0,0,0,2.793.7,9.151,9.151,0,0,0,6.772-3.564,11.874,11.874,0,0,0,2.365-5.613,17.444,17.444,0,0,0,.33-2.823" transform="translate(62.888 0.131)" fill="#fff"/>
  <path id="Path_47" data-name="Path 47" d="M182.026,16.62a2.083,2.083,0,0,1,1.513.613,2.363,2.363,0,0,0,1.715.66,3.513,3.513,0,0,0,2.2-1.765,1.119,1.119,0,0,0,.094-1.1c-.546-1.236-3.18-2.079-4.026-2.23a6.136,6.136,0,0,0-1.449-.077,5.8,5.8,0,0,0-4.157,2.571,7.933,7.933,0,0,0-1.139,3.49,9.875,9.875,0,0,0,1.274,5.053c.168.307.4.654.64,1.021.97,1.472,2.18,3.3,1.156,4.754a2.3,2.3,0,0,1-1.823.738,11.425,11.425,0,0,1-2.045-.441,1.367,1.367,0,0,1-.206-.094.9.9,0,0,0-.509-.155c-.451.04-.815.569-1.081.96l-.091.131c-.333.475-1.075,1.671-.748,2.587a1.5,1.5,0,0,0,1.122.893,13.75,13.75,0,0,0,2.971.526c.394.017.694.027.98.027a7.066,7.066,0,0,0,2.736-.438,6.433,6.433,0,0,0,3.413-4.615,10.331,10.331,0,0,0-1.658-6.859l-.121-.2c-.468-.751-.947-1.536-1.341-2.331a5.623,5.623,0,0,1-.414-1.3,2.791,2.791,0,0,1,.2-1.971,1.088,1.088,0,0,1,.792-.441" transform="translate(73.266 -4.374)" fill="#fff"/>
  <path id="Path_48" data-name="Path 48" d="M190.986,20.05a3.917,3.917,0,0,0-1.782-.893,3.827,3.827,0,0,0-2.48.576,17.416,17.416,0,0,0,.809-2.247c.162-.522.317-1.014.5-1.479.313-.805.637-1.634.9-2.5.01-.037.047-.121.091-.236.421-1.038.815-2.166.539-2.675a.482.482,0,0,0-.344-.246,7.006,7.006,0,0,0-1.27-.121,2.465,2.465,0,0,0-2.429,1.132l-.148.32c-.111.229-.189.391-.334.728-.273.633-.5,1.3-.724,1.934-.179.515-.36,1.048-.566,1.56-.472,1.183-.866,2.385-1.243,3.554-.243.734-.488,1.489-.755,2.24-.2.569-.408,1.135-.613,1.7-.478,1.314-.977,2.675-1.4,4.023a29.267,29.267,0,0,1-1.034,2.81c-.31.738-.542,1.5-.771,2.244-.189.62-.387,1.263-.627,1.877l-.034.084c-.236.6-.721,1.836-.357,2.49a.789.789,0,0,0,.586.394,9.476,9.476,0,0,0,1.439.094c.263,0,.512-.007.731-.017,1.125-.067,1.4-.974,1.671-1.853.047-.152.094-.307.145-.455.179-.515.32-1.058.451-1.58a17.715,17.715,0,0,1,.586-1.947c.091-.229.222-.593.381-1.031.59-1.627,1.684-4.656,2.3-5.316.7-.741,1.668-1.53,2.24-1.53a.438.438,0,0,1,.219.051c.569.313.1,1.62-.148,2.325-.04.118-.078.219-.1.3a19.3,19.3,0,0,1-.744,1.87c-.222.512-.455,1.044-.647,1.583-.222.623-.441,1.169-.657,1.691-.222.556-.455,1.132-.691,1.8-.219.593-.455,1.415-.061,1.728a1.283,1.283,0,0,0,.755.148,8.293,8.293,0,0,0,2.907-.553c.357-.232.984-2.089,1.9-4.9.3-.937.593-1.823.8-2.375.115-.3.232-.6.35-.9a11.4,11.4,0,0,0,.943-3.345,3.28,3.28,0,0,0-1.274-3.076" transform="translate(81.599 -10.233)" fill="#fff"/>
  <path id="Path_49" data-name="Path 49" d="M166.209,21.766a2.209,2.209,0,0,0,.7.115,2.025,2.025,0,0,0,.263-.017,5.507,5.507,0,0,0,2.4-1.108,6.8,6.8,0,0,0,2.186-6.9,4.013,4.013,0,0,0-2.318-1.984,2.392,2.392,0,0,0-2.911,1.179,3.766,3.766,0,0,0-.02,3.625,2.782,2.782,0,0,0,.735.738c.408.32.8.627.805,1.118.007.64-.58.893-1.2,1.162a2.429,2.429,0,0,0-1.179.792.831.831,0,0,0-.128.721,1.022,1.022,0,0,0,.674.563" transform="translate(54.875 -6.653)" fill="#fff"/>
  <path id="Path_50" data-name="Path 50" d="M117.295,44.836c-5.741,0-8.362-6.543-8.362-12.63,0-6.475,2.6-13.008,8.409-13.008,5.71,0,8.308,6.576,8.308,12.684,0,6.448-2.584,12.954-8.355,12.954m17.2-13.173c0-12.378-6.836-20.7-17.006-20.7-10.242,0-17.4,8.779-17.4,21.352,0,12.226,6.974,20.756,16.963,20.756,8.685,0,17.448-6.62,17.448-21.406" transform="translate(-100.086 -8.508)" fill="#fff"/>
  <path id="Path_51" data-name="Path 51" d="M118.726,44.955c7.338,0,10.629-4.986,10.629-9.928,0-5.936-4.026-8.416-7.533-9.922-3.473-1.489-4.063-2.405-4.063-3.9,0-.6.226-2.544,3.13-2.544a7.061,7.061,0,0,1,3.874,1.051,1.669,1.669,0,0,0,1.513.2A1.711,1.711,0,0,0,127.34,18.8l.913-2.992a1.738,1.738,0,0,0-.7-1.944A12.375,12.375,0,0,0,121,12.2c-5.785,0-9.979,3.969-9.979,9.426,0,4.39,2.56,7.553,7.813,9.672,3.49,1.449,3.773,2.682,3.773,4.023,0,1.991-1.334,3.136-3.655,3.136a8.748,8.748,0,0,1-4.912-1.54A1.674,1.674,0,0,0,112.5,36.7a1.7,1.7,0,0,0-1.068,1.142l-.879,3.076a1.727,1.727,0,0,0,.633,1.85,13.879,13.879,0,0,0,7.54,2.186" transform="translate(-75.442 -5.576)" fill="#fff"/>
  <path id="Path_52" data-name="Path 52" d="M118.715,44.163h3.342a1.7,1.7,0,0,0,1.7-1.708V30.846h9V42.455a1.7,1.7,0,0,0,1.7,1.708h3.342a1.7,1.7,0,0,0,1.695-1.708V14.045a1.7,1.7,0,0,0-1.695-1.708h-3.342a1.7,1.7,0,0,0-1.7,1.708V24.223h-9V14.045a1.7,1.7,0,0,0-1.7-1.708h-3.342a1.7,1.7,0,0,0-1.695,1.708v28.41a1.7,1.7,0,0,0,1.695,1.708" transform="translate(-59.97 -5.249)" fill="#fff"/>
  <path id="Path_53" data-name="Path 53" d="M131.423,52.061a2.178,2.178,0,0,0,2.173-2.19V36.743l.751-.943,9.15,15.207a2.182,2.182,0,0,0,1.86,1.054h5.023a2.181,2.181,0,0,0,1.9-1.122,2.223,2.223,0,0,0-.051-2.224L140.205,29.038l10.969-14.254a2.215,2.215,0,0,0,.236-2.314,2.18,2.18,0,0,0-1.954-1.226h-5.266a2.15,2.15,0,0,0-1.748.889L133.6,24.18V13.433a2.178,2.178,0,0,0-2.173-2.19h-4.238a2.183,2.183,0,0,0-2.176,2.19V49.871a2.183,2.183,0,0,0,2.176,2.19Z" transform="translate(-41.047 -7.84)" fill="#fff"/>
  <path id="Path_54" data-name="Path 54" d="M145.678,18.6c4.45,0,6.475,5.121,6.475,9.881,0,5.02-2.018,10.087-6.512,10.087-4.477,0-6.512-5.1-6.512-9.837,0-5.043,2.021-10.13,6.549-10.13m-.226,26.382c6.761,0,13.587-5.158,13.587-16.673,0-9.642-5.326-16.124-13.25-16.124-7.978,0-13.547,6.839-13.547,16.633,0,9.517,5.427,16.164,13.21,16.164" transform="translate(-23.908 -5.604)" fill="#fff"/>
  <path id="Path_55" data-name="Path 55" d="M159.575,35.024c0-5.933-4.026-8.412-7.533-9.918-3.473-1.489-4.06-2.409-4.06-3.9,0-.6.226-2.547,3.133-2.547a6.987,6.987,0,0,1,3.868,1.054,1.687,1.687,0,0,0,1.516.2,1.716,1.716,0,0,0,1.064-1.112l.906-2.992a1.715,1.715,0,0,0-.7-1.941,12.333,12.333,0,0,0-6.539-1.664c-5.785,0-9.986,3.965-9.986,9.423,0,4.39,2.564,7.557,7.816,9.676,3.49,1.445,3.777,2.678,3.777,4.023,0,1.991-1.334,3.136-3.662,3.136a8.818,8.818,0,0,1-4.915-1.54,1.673,1.673,0,0,0-1.54-.219,1.7,1.7,0,0,0-1.065,1.142l-.876,3.079a1.729,1.729,0,0,0,.627,1.85,13.9,13.9,0,0,0,7.54,2.183c7.338,0,10.629-4.983,10.629-9.928" transform="translate(-3.836 -5.576)" fill="#fff"/>
  <path id="Path_56" data-name="Path 56" d="M168.231,12.337h-3.345a1.7,1.7,0,0,0-1.7,1.708V24.219h-9V14.045a1.7,1.7,0,0,0-1.7-1.708h-3.342a1.7,1.7,0,0,0-1.7,1.708V42.452a1.7,1.7,0,0,0,1.7,1.711h3.342a1.7,1.7,0,0,0,1.7-1.711V30.846h9V42.452a1.7,1.7,0,0,0,1.7,1.711h3.345a1.7,1.7,0,0,0,1.7-1.711V14.045a1.7,1.7,0,0,0-1.7-1.708" transform="translate(12.129 -5.249)" fill="#fff"/>
  <path id="Path_57" data-name="Path 57" d="M134.992,24.368A1,1,0,0,0,136,25.389h62.437a1,1,0,0,0,1.014-1.021v-.849a1,1,0,0,0-1.014-1.017H136a.992.992,0,0,0-1.011,1.017Z" transform="translate(-17.396 18.832)" fill="#fff"/>
  <path id="Path_58" data-name="Path 58" d="M155.936,23.523a1,1,0,0,0-1.011-1.021h-43.84a.993.993,0,0,0-1.011,1.021v.849a.994.994,0,0,0,1.011,1.017h43.84a.992.992,0,0,0,1.011-1.017Z" transform="translate(-76.423 18.832)" fill="#fff"/>
  <path id="Path_59" data-name="Path 59" d="M184.208,12.614a1.78,1.78,0,0,1,.741.152,1.949,1.949,0,0,1,.606.411,2.036,2.036,0,0,1,.408.61,1.878,1.878,0,0,1,.152.748,1.854,1.854,0,0,1-.152.748,2.036,2.036,0,0,1-.408.61,2.008,2.008,0,0,1-.606.411,1.858,1.858,0,0,1-1.486,0,1.953,1.953,0,0,1-.6-.411,1.918,1.918,0,0,1-.408-.61,1.856,1.856,0,0,1-.152-.748,1.879,1.879,0,0,1,.152-.748,1.918,1.918,0,0,1,.408-.61,1.9,1.9,0,0,1,.6-.411,1.8,1.8,0,0,1,.745-.152m0,3.507a1.624,1.624,0,0,0,.627-.125,1.682,1.682,0,0,0,.5-.337,1.614,1.614,0,0,0,.334-.5,1.571,1.571,0,0,0,.125-.623,1.642,1.642,0,0,0-.125-.63,1.555,1.555,0,0,0-.334-.505,1.57,1.57,0,0,0-1.129-.465,1.575,1.575,0,0,0-1.465.97,1.641,1.641,0,0,0-.125.63,1.57,1.57,0,0,0,.125.623,1.624,1.624,0,0,0,.337.5,1.644,1.644,0,0,0,.5.337,1.612,1.612,0,0,0,.627.125" transform="translate(94.677 -4.593)" fill="#fff"/>
  <path id="Path_60" data-name="Path 60" d="M184.093,15.036a.072.072,0,0,1,0,.061.058.058,0,0,1-.054.034h-.249a.065.065,0,0,1-.061-.04.793.793,0,0,1-.054-.172c-.017-.084-.044-.2-.074-.354a.393.393,0,0,0-.4-.364h-.138v.862a.059.059,0,0,1-.067.067h-.243a.06.06,0,0,1-.064-.067V12.951a.056.056,0,0,1,.051-.061,2.086,2.086,0,0,1,.455-.047.8.8,0,0,1,.593.2.617.617,0,0,1,.121.2.718.718,0,0,1,.044.256.745.745,0,0,1-.074.32.591.591,0,0,1-.178.206.608.608,0,0,1,.061.051.731.731,0,0,1,.067.088.641.641,0,0,1,.067.128,1.111,1.111,0,0,1,.057.179l.024.1.02.094c.02.091.04.168.054.236a.852.852,0,0,0,.044.138m-.516-1.516q0-.334-.364-.334l-.094,0-.057.007v.667h.158a.367.367,0,0,0,.263-.091.343.343,0,0,0,.094-.253" transform="translate(95.594 -4.05)" fill="#fff"/>
</svg>
