<svg id="desktop_little_planet_logo" xmlns="http://www.w3.org/2000/svg" width="255.084" height="62.393" viewBox="0 0 255.084 62.393">
  <path id="Path_28" data-name="Path 28" d="M290.948,11.61l0,0a1.976,1.976,0,0,0-1.395-.592h0a1.953,1.953,0,0,0-1.388.6,2.065,2.065,0,0,0-.6,1.5,2.15,2.15,0,0,0,.6,1.556,1.934,1.934,0,0,0,1.395.6,1.958,1.958,0,0,0,1.349-.576l.191-.181v-.026a2.143,2.143,0,0,0,.454-1.369,2.07,2.07,0,0,0-.6-1.5" transform="translate(-276.354 -7.018)" fill="#fff"/>
  <path id="Path_29" data-name="Path 29" d="M304,48.009a6.538,6.538,0,0,1-2.385.418,3.879,3.879,0,0,1-2.678-.878,3.825,3.825,0,0,1-.941-2.951V27.234h7.083V24.651h-7.083l.023-14.843h-2.737l-.023,14.843h-5.195v2.582h5.247V44.6a7.27,7.27,0,0,0,1.365,4.494,5.5,5.5,0,0,0,4.675,1.915,9.723,9.723,0,0,0,1.773-.171,8.227,8.227,0,0,0,1.625-.467l.585-.243-.437-2.471Z" transform="translate(-270.621 -9.782)" fill="#fff"/>
  <path id="Path_30" data-name="Path 30" d="M309.365,48.009a6.543,6.543,0,0,1-2.388.418,3.877,3.877,0,0,1-2.675-.878,3.826,3.826,0,0,1-.941-2.951V27.234h7.083V24.651h-7.083l.023-14.843h-2.737l-.023,14.843h-5.2v2.582h5.25V44.6a7.277,7.277,0,0,0,1.365,4.494,5.5,5.5,0,0,0,4.671,1.915,9.67,9.67,0,0,0,1.773-.171,8.131,8.131,0,0,0,1.628-.467l.586-.243-.437-2.471Z" transform="translate(-258.341 -9.782)" fill="#fff"/>
  <rect id="Rectangle_2115" data-name="Rectangle 2115" width="2.737" height="41.198" transform="translate(57.34 0.025)" fill="#fff"/>
  <rect id="Rectangle_2116" data-name="Rectangle 2116" width="2.737" height="25.723" transform="translate(11.886 15.501)" fill="#fff"/>
  <rect id="Rectangle_2117" data-name="Rectangle 2117" width="2.737" height="41.253" transform="translate(0)" fill="#fff"/>
  <path id="Path_31" data-name="Path 31" d="M368.587,18a11.182,11.182,0,0,0-3.76-2.826,12.256,12.256,0,0,0-5.283-1.076,12,12,0,0,0-4.839.987,11.67,11.67,0,0,0-3.921,2.786,13.234,13.234,0,0,0-2.6,4.237,14.7,14.7,0,0,0-.947,5.326,16.291,16.291,0,0,0,.911,5.514,12.854,12.854,0,0,0,2.632,4.415,12.052,12.052,0,0,0,4.066,2.888,12.776,12.776,0,0,0,5.2,1.04,12.35,12.35,0,0,0,10.34-5.03l.451-.589-2.04-1.783-.51.678a10.419,10.419,0,0,1-3.559,3.05,10.156,10.156,0,0,1-4.681,1.046,9.714,9.714,0,0,1-4.464-.964,9.357,9.357,0,0,1-3.125-2.543,10.9,10.9,0,0,1-1.859-3.6,14.333,14.333,0,0,1-.6-3.336h21.548V26.437a14.31,14.31,0,0,0-.724-4.474A11.692,11.692,0,0,0,368.587,18m-18.515,7.645a11.631,11.631,0,0,1,.49-2.145,11,11,0,0,1,1.691-3.231,9.709,9.709,0,0,1,2.938-2.569,8.42,8.42,0,0,1,4.273-1.02,9.845,9.845,0,0,1,3.79.7,8.244,8.244,0,0,1,2.879,1.961,9.578,9.578,0,0,1,1.911,3.079,11.437,11.437,0,0,1,.717,3.224Z" transform="translate(-139.716 0.039)" fill="#fff"/>
  <path id="Path_32" data-name="Path 32" d="M350.894,37.152h0c-.086-.99-.128-1.948-.128-2.846V23.7c0-3.263-.892-5.711-2.651-7.284a10.3,10.3,0,0,0-7.06-2.323,13.2,13.2,0,0,0-4.441.806,12.65,12.65,0,0,0-4.053,2.375l-.546.467,1.556,2.207.661-.589a11.166,11.166,0,0,1,3.115-1.961,9.447,9.447,0,0,1,3.708-.727,7.54,7.54,0,0,1,5.1,1.671c1.247,1.076,1.878,2.862,1.878,5.3V24.8H344.62a38.719,38.719,0,0,0-4.26.266,15.833,15.833,0,0,0-4.5,1.191,9.84,9.84,0,0,0-3.619,2.652,6.979,6.979,0,0,0-1.526,4.658,7.012,7.012,0,0,0,2.895,5.889,9.163,9.163,0,0,0,2.842,1.378,11.24,11.24,0,0,0,3.135.454,11.078,11.078,0,0,0,5.928-1.721,8.751,8.751,0,0,0,2.7-2.648l0,.056c.049.536.1,1.053.128,1.556a10.9,10.9,0,0,0,.174,1.385l.125.635h2.681l-.151-.911c-.1-.645-.194-1.48-.28-2.49m-7.238.661a8.3,8.3,0,0,1-4.073.9,8.7,8.7,0,0,1-2.142-.293,6.405,6.405,0,0,1-2.013-.892A4.568,4.568,0,0,1,334,35.98a4.748,4.748,0,0,1-.549-2.411,4.7,4.7,0,0,1,.987-3.155,6.981,6.981,0,0,1,2.714-1.882,14.509,14.509,0,0,1,3.829-.921,39.8,39.8,0,0,1,4.115-.23h2.934V28.9a15.759,15.759,0,0,1-.4,3.474,8.891,8.891,0,0,1-1.372,3.132,7.662,7.662,0,0,1-2.6,2.306" transform="translate(-177.547 0.039)" fill="#fff"/>
  <path id="Path_33" data-name="Path 33" d="M358.468,17.7h0a8.131,8.131,0,0,0-2.961-2.615,9.69,9.69,0,0,0-4.566-.984,10.744,10.744,0,0,0-3.29.51,10.381,10.381,0,0,0-2.951,1.5,11.658,11.658,0,0,0-2.421,2.392q-.143.188-.276.385l-.01-.27c-.016-.615-.033-1.184-.053-1.711s-.043-.984-.079-1.362l-.069-.714h-2.75l.089.868c.033.345.069.773.1,1.283s.063,1.059.079,1.625v.072c.017.556.033,1.1.053,1.635.016.549.023,1.017.023,1.395v19.62h2.737V27.695a14.361,14.361,0,0,1,.717-4.7,10.818,10.818,0,0,1,1.9-3.448,7.976,7.976,0,0,1,6.195-2.872,6.184,6.184,0,0,1,3.3.8,6.554,6.554,0,0,1,2.089,2.04,7.786,7.786,0,0,1,1.069,2.763,16.354,16.354,0,0,1,.3,3l0,16.054h2.737l0-16.159a17.521,17.521,0,0,0-.441-3.9,10.447,10.447,0,0,0-1.533-3.573" transform="translate(-158.471 0.041)" fill="#fff"/>
  <path id="Path_34" data-name="Path 34" d="M370.3,47.653l-.9.355a6.544,6.544,0,0,1-2.388.415,3.9,3.9,0,0,1-2.675-.872A3.839,3.839,0,0,1,363.4,44.6V27.231h7.083V24.651h-7.08l.036-14.843h-2.737l-.04,14.843h-5.194v2.579h5.244V44.6a7.286,7.286,0,0,0,1.368,4.494A5.5,5.5,0,0,0,366.755,51a9.768,9.768,0,0,0,1.777-.168,8.226,8.226,0,0,0,1.625-.467l.586-.243Z" transform="translate(-120.853 -9.782)" fill="#fff"/>
  <rect id="Rectangle_2118" data-name="Rectangle 2118" width="2.737" height="41.198" transform="translate(143.191 0.025)" fill="#fff"/>
  <path id="Path_35" data-name="Path 35" d="M325.551,18a11.239,11.239,0,0,0-3.76-2.823,12.256,12.256,0,0,0-5.283-1.076,12,12,0,0,0-4.839.987,11.627,11.627,0,0,0-3.918,2.786,13.232,13.232,0,0,0-2.605,4.237,14.707,14.707,0,0,0-.947,5.326,16.321,16.321,0,0,0,.911,5.514,12.9,12.9,0,0,0,2.632,4.415,12.116,12.116,0,0,0,4.066,2.888,12.779,12.779,0,0,0,5.2,1.04,12.349,12.349,0,0,0,10.336-5.03l.454-.589-2.04-1.783-.513.678a10.455,10.455,0,0,1-3.559,3.05,10.152,10.152,0,0,1-4.678,1.046,9.738,9.738,0,0,1-4.468-.964,9.392,9.392,0,0,1-3.125-2.543,11.027,11.027,0,0,1-1.859-3.6,14.054,14.054,0,0,1-.6-3.336h21.548V26.437a14.264,14.264,0,0,0-.724-4.474A11.691,11.691,0,0,0,325.551,18m-18.515,7.649a11.351,11.351,0,0,1,.493-2.145,11.027,11.027,0,0,1,1.688-3.231,9.75,9.75,0,0,1,2.938-2.569,8.42,8.42,0,0,1,4.273-1.02,9.875,9.875,0,0,1,3.793.7,8.258,8.258,0,0,1,2.875,1.961,9.518,9.518,0,0,1,1.911,3.079,11.341,11.341,0,0,1,.72,3.224Z" transform="translate(-238.257 0.039)" fill="#fff"/>
  <path id="Path_36" data-name="Path 36" d="M339.984,18v0a12.3,12.3,0,0,0-4.083-2.855,12.9,12.9,0,0,0-5.211-1.04,12.5,12.5,0,0,0-6.787,1.961,11.727,11.727,0,0,0-3.425,3.339V14.831h-2.786V62.354h2.79V36.342c3.566,3.227,7.162,4.862,10.7,4.862.072,0,.145,0,.217,0v.056l1.1-.148c.168-.02.336-.043.49-.072a11.269,11.269,0,0,0,2.859-.786,11.94,11.94,0,0,0,1.372-.711l.9-.569-.007-.007a11.71,11.71,0,0,0,1.819-1.573,13.027,13.027,0,0,0,2.648-4.3,14.945,14.945,0,0,0,.941-5.346,15.75,15.75,0,0,0-.911-5.415A12.588,12.588,0,0,0,339.984,18m-18.768,5.418a11.115,11.115,0,0,1,2.148-3.5,10.3,10.3,0,0,1,3.234-2.365,10.164,10.164,0,0,1,8.274.023,9.8,9.8,0,0,1,3.175,2.4,10.886,10.886,0,0,1,2.026,3.523,13,13,0,0,1,0,8.5,10.47,10.47,0,0,1-2.023,3.494,9.565,9.565,0,0,1-3,2.267c-3.852,1.678-7.9.786-12.037-2.655,1.132-.809,2.382-1.026,7.07-.25.112.349.227.684.336,1.007l.257.75,2.458-.839-.26-.75c-1.2-3.527-1.888-6.119-.3-8.645l.03.053c1.086,1.783,1.556,2.684.464,3.662l-.589.526,1.73,1.934.589-.53c2.951-2.638,1.076-5.484-.434-7.77-.184-.28-.365-.556-.536-.829l-.882-1.395L331.8,23.2a9.338,9.338,0,0,0-2.471,8.925c-5.2-.813-6.435-.365-8.642,1.5l-.2.171-.016-4.573c-.033-.474-.033-1-.033-1.536a11.743,11.743,0,0,1,.783-4.28" transform="translate(-207.355 0.039)" fill="#fff"/>
  <path id="Path_37" data-name="Path 37" d="M362.379,22.814c.306-.007.428-.135.428-.339,0-.224-.141-.319-.428-.319h-.316v.661Zm-.313.924h-.326V21.867h.674c.461,0,.72.217.72.586a.547.547,0,0,1-.362.546l.461.74h-.375l-.4-.668-.388.023Zm.339-2.5a1.582,1.582,0,1,0,1.569,1.586,1.583,1.583,0,0,0-1.569-1.586m-1.822,1.586a1.824,1.824,0,1,1,1.822,1.823,1.824,1.824,0,0,1-1.822-1.823" transform="translate(-109.147 15.834)" fill="#fff"/>
</svg>
