<svg xmlns="http://www.w3.org/2000/svg" width="252.916" height="252.916" viewBox="0 0 252.916 252.916">
  <g id="car_0221_shopourfaves_HP_swim" transform="translate(-1126 -1142.217)">
    <path id="Path_61682" data-name="Path 61682" d="M126.458,0A126.458,126.458,0,1,1,0,126.458,126.458,126.458,0,0,1,126.458,0Z" transform="translate(1126 1142.217)" fill="#00a9e0"/>
    <path id="Path_159844" data-name="Path 159844" d="M-43.818.544A17,17,0,0,1-47.337.2a16.983,16.983,0,0,1-3-.909,17.232,17.232,0,0,1-2.38-1.19,11.64,11.64,0,0,1-1.657-1.19L-51.094-8.6q.663.493,1.5,1.037a15.746,15.746,0,0,0,1.811,1,12.335,12.335,0,0,0,2.023.748,8,8,0,0,0,2.125.289,4.761,4.761,0,0,0,1.751-.289,2.459,2.459,0,0,0,1.139-.867,2.444,2.444,0,0,0,.408-1.445A2.566,2.566,0,0,0-40.7-9.511a3.8,3.8,0,0,0-1.113-1.1,14.83,14.83,0,0,0-1.9-1.062q-1.147-.552-2.712-1.266a14.868,14.868,0,0,1-2.159-1.241,9.023,9.023,0,0,1-1.751-1.581,6.7,6.7,0,0,1-1.156-1.955,6.539,6.539,0,0,1-.408-2.346,7.712,7.712,0,0,1,.672-3.162,8.627,8.627,0,0,1,1.921-2.72,9.245,9.245,0,0,1,2.992-1.912,10.217,10.217,0,0,1,3.868-.705,13.767,13.767,0,0,1,3.052.357,18.345,18.345,0,0,1,3,.952,12.27,12.27,0,0,1,2.465,1.343l-2.652,5.219a11.418,11.418,0,0,0-1.777-.995,10.859,10.859,0,0,0-1.964-.672,8.522,8.522,0,0,0-1.972-.238A4.392,4.392,0,0,0-44-22.3a2.481,2.481,0,0,0-1.088.833,2.094,2.094,0,0,0-.382,1.25,1.787,1.787,0,0,0,.221.91,2.07,2.07,0,0,0,.672.68,8.123,8.123,0,0,0,1.131.6q.68.306,1.6.68,2.074.9,3.706,1.76A13.007,13.007,0,0,1-35.394-13.7a6.817,6.817,0,0,1,1.683,2.337,7.775,7.775,0,0,1,.569,3.1,8.34,8.34,0,0,1-1.317,4.743A8.35,8.35,0,0,1-38.174-.5,14.032,14.032,0,0,1-43.818.544ZM-26.274,0l-7.99-28.05h7.293l4.692,19.006,5.168-19.006h4.9L-7.047-9.044-2.355-28.05H4.938L-3.069,0h-7.276l-4.318-15.419L-19,0ZM8.764,0V-28.05h6.545V0ZM21.242,0l2.482-28.05h6.97L36.831-12.1,42.968-28.05h6.97L52.42,0H45.875L44.617-16.337,38.8-.323H34.859L29.045-16.337,27.8,0Z" transform="translate(1252.939 1279)" fill="#fff"/>
  </g>
</svg>
