<svg xmlns="http://www.w3.org/2000/svg" width="252.916" height="252.916" viewBox="0 0 252.916 252.916">
  <g id="car_0221_shopourfaves_HP_shoes" transform="translate(-1400 -1615.734)">
    <path id="Path_61682" data-name="Path 61682" d="M126.458,0A126.458,126.458,0,1,1,0,126.458,126.458,126.458,0,0,1,126.458,0Z" transform="translate(1400 1615.734)" fill="#00a9e0"/>
    <path id="Path_159849" data-name="Path 159849" d="M-53.508.544A17,17,0,0,1-57.027.2a16.983,16.983,0,0,1-3-.909,17.232,17.232,0,0,1-2.38-1.19,11.641,11.641,0,0,1-1.658-1.19L-60.784-8.6q.663.493,1.5,1.037a15.746,15.746,0,0,0,1.811,1,12.335,12.335,0,0,0,2.023.748,8,8,0,0,0,2.125.289,4.761,4.761,0,0,0,1.751-.289,2.459,2.459,0,0,0,1.139-.867,2.444,2.444,0,0,0,.408-1.445,2.566,2.566,0,0,0-.366-1.385,3.8,3.8,0,0,0-1.113-1.1,14.83,14.83,0,0,0-1.9-1.062q-1.147-.552-2.712-1.266a14.868,14.868,0,0,1-2.159-1.241,9.023,9.023,0,0,1-1.751-1.581,6.7,6.7,0,0,1-1.156-1.955,6.539,6.539,0,0,1-.408-2.346,7.712,7.712,0,0,1,.672-3.162,8.627,8.627,0,0,1,1.921-2.72A9.245,9.245,0,0,1-56-27.854a10.217,10.217,0,0,1,3.868-.705,13.767,13.767,0,0,1,3.052.357,18.345,18.345,0,0,1,3,.952,12.27,12.27,0,0,1,2.465,1.343l-2.652,5.219a11.418,11.418,0,0,0-1.777-.995,10.859,10.859,0,0,0-1.964-.672,8.522,8.522,0,0,0-1.972-.238,4.392,4.392,0,0,0-1.708.3,2.481,2.481,0,0,0-1.088.833,2.094,2.094,0,0,0-.382,1.25,1.787,1.787,0,0,0,.221.91,2.07,2.07,0,0,0,.672.68,8.123,8.123,0,0,0,1.131.6q.68.306,1.6.68,2.074.9,3.706,1.76A13.007,13.007,0,0,1-45.084-13.7,6.817,6.817,0,0,1-43.4-11.365a7.775,7.775,0,0,1,.569,3.1,8.34,8.34,0,0,1-1.317,4.743A8.35,8.35,0,0,1-47.864-.5,14.032,14.032,0,0,1-53.508.544ZM-37.749,0V-28.05H-31.2v11.118h8.738V-28.05H-15.9V0h-6.562V-11.186H-31.2V0ZM3.2.544A13.6,13.6,0,0,1-2.3-.578,14.063,14.063,0,0,1-6.809-3.7,14.665,14.665,0,0,1-9.843-8.339a14.649,14.649,0,0,1-1.1-5.67,14.649,14.649,0,0,1,1.1-5.669,14.665,14.665,0,0,1,3.034-4.641A14.063,14.063,0,0,1-2.3-27.438,13.6,13.6,0,0,1,3.2-28.56a13.6,13.6,0,0,1,5.508,1.122,14.063,14.063,0,0,1,4.5,3.119,14.665,14.665,0,0,1,3.034,4.641,14.649,14.649,0,0,1,1.1,5.669,14.649,14.649,0,0,1-1.1,5.67A14.665,14.665,0,0,1,13.217-3.7a14.063,14.063,0,0,1-4.5,3.119A13.6,13.6,0,0,1,3.2.544Zm0-6.324a6.8,6.8,0,0,0,2.865-.595A6.493,6.493,0,0,0,8.313-8.066a7.87,7.87,0,0,0,1.462-2.6,10.2,10.2,0,0,0,.518-3.341,10.2,10.2,0,0,0-.518-3.34,7.87,7.87,0,0,0-1.462-2.6,6.493,6.493,0,0,0-2.244-1.692A6.8,6.8,0,0,0,3.2-22.236a6.8,6.8,0,0,0-2.864.595A6.493,6.493,0,0,0-1.9-19.949a7.87,7.87,0,0,0-1.462,2.6,10.2,10.2,0,0,0-.518,3.34,10.2,10.2,0,0,0,.518,3.341A7.87,7.87,0,0,0-1.9-8.066,6.493,6.493,0,0,0,.34-6.375,6.8,6.8,0,0,0,3.2-5.78ZM22.312,0V-28.05H38.428V-22.3H28.857v5.372H38.02v5.746H28.857v5.44h9.571V0ZM52.283.544A17,17,0,0,1,48.764.2a16.983,16.983,0,0,1-3-.909,17.232,17.232,0,0,1-2.38-1.19,11.64,11.64,0,0,1-1.657-1.19L45.007-8.6q.663.493,1.5,1.037a15.746,15.746,0,0,0,1.811,1,12.335,12.335,0,0,0,2.023.748,8,8,0,0,0,2.125.289,4.761,4.761,0,0,0,1.751-.289,2.459,2.459,0,0,0,1.139-.867,2.444,2.444,0,0,0,.408-1.445A2.566,2.566,0,0,0,55.4-9.511a3.8,3.8,0,0,0-1.113-1.1,14.83,14.83,0,0,0-1.9-1.062q-1.147-.552-2.712-1.266a14.868,14.868,0,0,1-2.159-1.241,9.023,9.023,0,0,1-1.751-1.581,6.7,6.7,0,0,1-1.156-1.955,6.539,6.539,0,0,1-.408-2.346,7.712,7.712,0,0,1,.672-3.162,8.627,8.627,0,0,1,1.921-2.72,9.245,9.245,0,0,1,2.992-1.912,10.217,10.217,0,0,1,3.868-.705,13.767,13.767,0,0,1,3.052.357,18.345,18.345,0,0,1,3,.952,12.27,12.27,0,0,1,2.465,1.343l-2.652,5.219a11.418,11.418,0,0,0-1.777-.995,10.859,10.859,0,0,0-1.964-.672,8.522,8.522,0,0,0-1.972-.238,4.392,4.392,0,0,0-1.708.3,2.481,2.481,0,0,0-1.088.833,2.094,2.094,0,0,0-.382,1.25,1.787,1.787,0,0,0,.221.91,2.07,2.07,0,0,0,.672.68,8.123,8.123,0,0,0,1.131.6q.68.306,1.6.68,2.074.9,3.706,1.76A13.007,13.007,0,0,1,60.707-13.7a6.817,6.817,0,0,1,1.683,2.337,7.775,7.775,0,0,1,.569,3.1,8.34,8.34,0,0,1-1.317,4.743A8.35,8.35,0,0,1,57.927-.5,14.032,14.032,0,0,1,52.283.544Z" transform="translate(1526.939 1751.782)" fill="#fff"/>
  </g>
</svg>
