<svg xmlns="http://www.w3.org/2000/svg" width="252.916" height="252.916" viewBox="0 0 252.916 252.916">
  <g id="car_0221_shopourfaves_HP_familymatching" transform="translate(-851 -1615.734)">
    <g id="Group_19414" data-name="Group 19414" transform="translate(0 473.782)">
      <path id="Path_61682" data-name="Path 61682" d="M126.458,0A126.458,126.458,0,1,1,0,126.458,126.458,126.458,0,0,1,126.458,0Z" transform="translate(851 1141.952)" fill="#00a9e0"/>
    </g>
    <path id="Path_159847" data-name="Path 159847" d="M-67.09,0V-28.05h16.3V-22.3H-61.973l1.428-1.377V-15.4l-1.428-1.53h10.438v5.746H-61.973l1.428-1.53V0ZM-50.7,0l11.356-28.05h6.086L-21.921,0h-7.055l-2.006-5.474H-41.624L-43.647,0ZM-39.4-11.22h6.171L-36.3-19.159ZM-19.779,0-17.3-28.05h6.97L-4.19-12.1,1.947-28.05h6.97L11.4,0H4.854L3.6-16.337-2.218-.323H-6.162l-5.814-16.014L-13.217,0ZM17.331,0V-28.05h6.545V0ZM31.017,0V-28.05h6.545v22.3h9.554V0ZM54.392,0V-12.614L44-28.05h7.9l5.746,8.806,5.763-8.806h7.888L60.937-12.614V0ZM-103.462,34l2.482-28.05h6.97L-87.873,21.9-81.736,5.95h6.97L-72.284,34h-6.545l-1.258-16.337L-85.9,33.677h-3.944l-5.814-16.014L-96.9,34Zm33.32,0L-58.786,5.95H-52.7L-41.361,34h-7.055l-2.006-5.474H-61.064L-63.087,34Zm11.305-11.22h6.171l-3.077-7.939ZM-36.431,34V11.713H-43.01V5.95h19.72v5.763h-6.579V34Zm29.665.544a15.986,15.986,0,0,1-6-1.13,16.05,16.05,0,0,1-4.981-3.128,14.687,14.687,0,0,1-3.383-4.632,13.233,13.233,0,0,1-1.224-5.644,13.251,13.251,0,0,1,1.233-5.669A14.834,14.834,0,0,1-17.739,9.7,15.97,15.97,0,0,1-12.775,6.57,15.876,15.876,0,0,1-6.8,5.44a16.781,16.781,0,0,1,4.913.714A14.068,14.068,0,0,1,2.091,8.007L-.7,13.583a8.105,8.105,0,0,0-2.55-1.241,10.715,10.715,0,0,0-3.128-.459A9.754,9.754,0,0,0-9.86,12.5a8.793,8.793,0,0,0-2.83,1.717,7.865,7.865,0,0,0-1.887,2.575,7.622,7.622,0,0,0-.672,3.2,7.622,7.622,0,0,0,.672,3.2,7.865,7.865,0,0,0,1.887,2.576,8.793,8.793,0,0,0,2.83,1.717,9.754,9.754,0,0,0,3.485.612,10.715,10.715,0,0,0,3.128-.459A8.105,8.105,0,0,0-.7,26.4l2.788,5.576A14.46,14.46,0,0,1-1.8,33.8,16.31,16.31,0,0,1-6.766,34.544ZM6,34V5.95h6.545V17.068h8.738V5.95h6.562V34H21.284V22.814H12.546V34Zm28.985,0V5.95h6.545V34Zm13.685,0V5.95h6.545L66.232,23.1V5.95h6.545V34H66.232L55.216,16.847V34Zm42.806.544a13.161,13.161,0,0,1-5.363-1.1,13.321,13.321,0,0,1-4.361-3.077,14.323,14.323,0,0,1-2.915-4.633,15.622,15.622,0,0,1-1.046-5.78,15.683,15.683,0,0,1,1-5.627A13.982,13.982,0,0,1,81.668,9.7,13.278,13.278,0,0,1,86.156,6.57a14.561,14.561,0,0,1,5.831-1.13,19.065,19.065,0,0,1,7.14,1.436,14.446,14.446,0,0,1,3.2,1.811L99.28,13.77a10.186,10.186,0,0,0-3.417-1.836,12.225,12.225,0,0,0-3.774-.646A7.39,7.39,0,0,0,89,11.9a6.243,6.243,0,0,0-2.261,1.725,7.578,7.578,0,0,0-1.385,2.652,11.629,11.629,0,0,0-.468,3.391,11.92,11.92,0,0,0,.527,3.672,8.476,8.476,0,0,0,1.471,2.788A6.444,6.444,0,0,0,89.1,27.9a6.243,6.243,0,0,0,2.737.612,6.6,6.6,0,0,0,2.253-.382,6.183,6.183,0,0,0,1.887-1.071,5.12,5.12,0,0,0,1.292-1.6,4.2,4.2,0,0,0,.467-1.946v-.2H91.46V18.241h12.954v4.9a9.845,9.845,0,0,1-1.046,4.479,11.652,11.652,0,0,1-2.856,3.638,13.541,13.541,0,0,1-4.139,2.422A13.919,13.919,0,0,1,91.477,34.544Z" transform="translate(977.939 1734.782)" fill="#fff"/>
  </g>
</svg>
